<svg xmlns="http://www.w3.org/2000/svg" xmlns:xlink="http://www.w3.org/1999/xlink" version="1.1" id="Layer_1" x="0px" y="0px" style="enable-background:new 0 0 256.93 256.93;" xml:space="preserve" viewBox="19.77 87.7 217.39 81.52">
<style type="text/css">
	.st0{fill:rgb(68, 132, 26);}
</style>
<g>
	<path class="st0" d="M101.29,128.46c0,22.51-18.25,40.76-40.76,40.76c-22.51,0-40.76-18.25-40.76-40.76   c0-22.51,18.25-40.76,40.76-40.76C83.04,87.7,101.29,105.95,101.29,128.46z M44.3,119.33h7.44c0.23,0,0.39-0.18,0.42-0.42   c0.6-4.08,4.13-7.22,8.38-7.22c4.25,0,7.78,3.13,8.38,7.22c0.03,0.23,0.21,0.42,0.44,0.42h7.41c0.23,0,0.42-0.19,0.42-0.42   c-0.64-8.64-7.85-15.44-16.65-15.44c-8.8,0-16.01,6.81-16.65,15.44C43.88,119.14,44.07,119.33,44.3,119.33z M68.53,134.8   c4.83-2.65,8.21-7.6,8.64-13.39c0-0.23-0.19-0.41-0.42-0.41h-7.44c-0.23,0-0.39,0.18-0.42,0.41c-0.6,4.09-4.12,7.22-8.38,7.22   c-4.25,0-7.77-3.14-8.38-7.22c-0.02-0.24-0.19-0.41-0.42-0.41h-7.44c-0.23,0-0.42,0.19-0.42,0.41c0.43,5.79,3.81,10.74,8.64,13.39   c-5.06,2.77-8.53,8.09-8.68,14.23c0,0.23,0.19,0.42,0.42,0.42h7.39c0.23,0,0.42-0.19,0.42-0.42c0.22-4.48,3.92-8.05,8.46-8.05   c4.54,0,8.25,3.57,8.46,8.05c0,0.23,0.19,0.42,0.42,0.42h7.4c0.23,0,0.42-0.19,0.42-0.42C77.06,142.88,73.59,137.57,68.53,134.8z"/>
	<g>
		<path class="st0" d="M133.82,132.88c0,2.45-2.51,3.28-3.99,3.28s-3.99-0.83-3.99-3.28v-13.36c0-2.45,2.52-3.28,3.99-3.28    s3.99,0.83,3.99,3.28V132.88z M129.84,109.77c-7.13,0.02-10.43,5.02-10.43,9.26v14.35c0,4.25,3.31,9.24,10.43,9.26    c7.12-0.02,10.43-5.02,10.43-9.26v-14.35C140.27,114.78,136.96,109.79,129.84,109.77z"/>
		<polygon class="st0" points="175.56,142.05 175.56,129.56 185.19,129.56 185.19,123.15 175.61,123.15 175.61,116.79     186.76,116.79 186.76,110.35 169.13,110.35 169.13,142.05   "/>
		<path class="st0" d="M197.68,120.24l2.57,9.97h-5.2L197.68,120.24z M203.31,142.05h6.43l-8.4-31.7h-7.52l-8.27,31.7H192l1.47-5.62    h8.39L203.31,142.05z"/>
		<polygon class="st0" points="157.64,126.18 165.84,110.35 158.4,110.35 153.91,119.58 149.42,110.35 141.97,110.35 150.18,126.18     141.92,142.05 149.46,142.05 153.91,132.84 158.36,142.05 165.89,142.05   "/>
		<polygon class="st0" points="230.46,110.35 224.79,122.54 219.04,110.35 212.44,110.35 212.44,142.05 218.74,142.05     218.74,124.02 222.79,132.45 226.81,132.45 230.86,124.04 230.86,142.05 237.16,142.05 237.16,110.35   "/>
	</g>
</g>
</svg>